<svg xmlns="http://www.w3.org/2000/svg" version="1.1" xmlns:xlink="http://www.w3.org/1999/xlink" xmlns:svgjs="http://svgjs.dev/svgjs" width="2000" height="1500" viewBox="0 0 2000 1500"><rect width="2000" height="1500" fill="#046380"></rect><g transform="matrix(0.75,0,0,0.75,249.090909090909,282.7536437246963)"><svg viewBox="0 0 396 247" data-background-color="#046380" preserveAspectRatio="xMidYMid meet" height="1247" width="2000" xmlns="http://www.w3.org/2000/svg" xmlns:xlink="http://www.w3.org/1999/xlink"><g id="tight-bounds" transform="matrix(1,0,0,1,0.2400000000000091,-0.09999999999999432)"><svg viewBox="0 0 395.52 247.2" height="247.2" width="395.52"><g><svg></svg></g><g><svg viewBox="0 0 395.52 247.2" height="247.2" width="395.52"><g transform="matrix(1,0,0,1,61.28298904506619,37.08)"><svg viewBox="0 0 272.9540219098676 173.04" height="173.04" width="272.9540219098676"><g><svg viewBox="0 0 316.416 200.59284804412925" height="173.04" width="272.9540219098676"><g transform="matrix(1,0,0,1,0,123.97442747722086)"><svg viewBox="0 0 316.416 76.61842056690838" height="76.61842056690838" width="316.416"><g id="textblocktransform"><svg viewBox="0 0 316.416 76.61842056690838" height="76.61842056690838" width="316.416" id="textblock"><g><svg viewBox="0 0 316.416 76.61842056690838" height="76.61842056690838" width="316.416"><g transform="matrix(1,0,0,1,0,0)"><svg width="316.416" viewBox="0.15000000596046448 -39.29999923706055 227.52999877929688 55.099998474121094" height="76.61842056690838" data-palette-color="#ffffff"><path d="M18.75-1.8L18.75-1.8Q14.1 1.95 8.45 1.95L8.45 1.95Q2 1.95 0.5-1.65L0.5-1.65Q0.15-2.5 0.15-3.63 0.15-4.75 1.3-6.05L1.3-6.05Q3.1-8.1 6.3-8.1L6.3-8.1Q8.45-8.1 10.63-7.33 12.8-6.55 18.35-3.6L18.35-3.6Q20.85-6 23.35-10 25.85-14 27.68-17.73 29.5-21.45 32.13-25.85 34.75-30.25 37.35-33.15L37.35-33.15Q31.75-36.5 25.45-36.5L25.45-36.5Q22.85-36.5 20.15-35.95L20.15-35.95Q12.4-34.3 8.35-29.2L8.35-29.2Q5.85-26.1 5.85-23.3L5.85-23.3Q5.85-19.5 9.5-18.35L9.5-18.35Q10.8-18 11.75-18 12.7-18 13.88-18.3 15.05-18.6 16.2-19.7L16.2-19.7Q18.4-21.9 18.55-23.8L18.55-23.8Q18.6-24.25 19.13-24.13 19.65-24 19.55-23.35L19.55-23.35Q19.05-19.7 15.7-17.8L15.7-17.8Q13.65-16.7 11.6-16.7L11.6-16.7 9-17.15Q5.2-18.45 4-22L4-22Q3.5-23.35 3.5-24.7L3.5-24.7Q3.5-27.45 5.55-30.15L5.55-30.15Q9.95-36.05 21.15-37.7L21.15-37.7Q23.35-38 25.5-38L25.5-38Q32.45-38 38.75-34.7L38.75-34.7Q40.7-36.95 42.35-38.13 44-39.3 45-39.3L45-39.3Q45.55-39.3 45.65-39.08 45.75-38.85 45.63-38.73 45.5-38.6 45.3-38.6L45.3-38.6Q44.45-38.6 43.1-36.8 41.75-35 40.9-33.45L40.9-33.45Q46.25-29.9 49.05-24.35L49.05-24.35Q51.3-19.9 51.3-14.65L51.3-14.65Q51.3-8.15 48.2-4.3L48.2-4.3Q45.65-1.15 42 0.15L42 0.15Q37.65 1.7 33.4 1.7L33.4 1.7Q24.8 1.7 18.75-1.8ZM19.95-2.7L19.95-2.7Q25 0.3 31.8 0.3L31.8 0.3Q39.7 0.3 44.4-4.2L44.4-4.2Q48.15-7.85 48.15-14.3L48.15-14.3Q48.15-18.9 46.35-22.95L46.35-22.95Q44.1-28.1 39.7-31.55L39.7-31.55Q38.25-29.3 34.13-22.48 30-15.65 27.15-11.4 24.3-7.15 22.65-5.38 21-3.6 19.95-2.7ZM17.05-2.6L17.05-2.6Q11.2-5.4 9.65-5.95 8.1-6.5 6.63-6.5 5.15-6.5 4.28-5.4 3.4-4.3 3.4-3.43 3.4-2.55 3.8-1.75L3.8-1.75Q4.85 0.4 8.1 0.4L8.1 0.4Q12.9 0.4 17.05-2.6ZM68.75-13.55Q67.85-12.65 66.2-9.47 64.55-6.3 64.22-4.73 63.9-3.15 63.9-2.18 63.9-1.2 64.65-1.2L64.65-1.2Q65.6-1.2 67-2.95L67-2.95Q69.05-5.5 71.05-9.6L71.05-9.6Q71.25-10.05 71.5-10.1L71.5-10.1Q71.9-10.25 71.9-9.8L71.9-9.8Q71.9-9.55 71.75-9.2L71.75-9.2Q67.15 0.1 64 0.1L64 0.1Q62.55 0.1 61.65-1.3L61.65-1.3Q61.2-2.05 61.2-3.3 61.2-4.55 61.7-6.35L61.7-6.35Q57.7 0.1 54.8 0.1L54.8 0.1Q54 0.1 53.35-0.4L53.35-0.4Q51.85-1.45 51.85-4L51.85-4Q51.85-8.9 56.1-13.95L56.1-13.95Q58.5-16.75 62-17.6L62-17.6Q62.95-17.85 63.8-17.85L63.8-17.85Q66.1-17.85 67.7-16.25L67.7-16.25Q68.2-15.7 68-15.2 67.8-14.7 67.15-14.8L67.15-14.8Q66.6-16.6 64.75-16.6L64.75-16.6Q62.6-16.6 59.45-13.2L59.45-13.2Q57.65-11.2 56.1-8.5L56.1-8.5Q54.15-5.25 54.15-3.3 54.15-1.35 55.4-1.35L55.4-1.35Q58.4-1.35 63.25-10.55L63.25-10.55Q64.2-12.4 64.85-13.08 65.5-13.75 66.5-13.75L66.5-13.75Q66.7-13.75 67.52-13.6 68.35-13.45 68.75-13.55L68.75-13.55ZM77.9-19.45Q77.2-18.85 76.35-18.85 75.5-18.85 75-19.45 74.5-20.05 74.6-20.9L74.6-20.9Q74.75-21.75 75.45-22.35 76.15-22.95 77-22.95 77.85-22.95 78.37-22.35 78.9-21.75 78.75-20.9 78.6-20.05 77.9-19.45ZM73-1.1L73-1.1Q73.95-1.1 75-2.05L75-2.05Q76.85-3.9 79.7-9.6L79.7-9.6Q80.05-10.35 80.4-10.05L80.4-10.05Q80.5-9.95 80.5-9.73 80.5-9.5 80.1-8.63 79.7-7.75 79.37-7.05 79.05-6.35 78.12-4.78 77.2-3.2 76.45-2.35L76.45-2.35Q74.4 0 72.57 0 70.75 0 69.95-1.1 69.15-2.2 69.15-3.55 69.15-4.9 69.8-6.5L69.8-6.5 73-14.65Q73.1-14.95 73.1-15.45 73.1-15.95 72.5-16.75L72.5-16.75 75.25-16.8Q76.4-16.8 76.6-16.38 76.8-15.95 76.3-15.05L76.3-15.05 72.3-5.7Q71.45-3.85 71.45-2.55L71.45-2.55Q71.45-1.1 73-1.1ZM82.49-9.65Q82.44-9.45 82.04-8.28 81.64-7.1 81.37-6.03 81.09-4.95 81.09-3.88 81.09-2.8 81.59-1.88 82.09-0.95 83.19-0.95L83.19-0.95Q84.99-0.95 86.69-3.38 88.39-5.8 90.29-9.55L90.29-9.55Q90.69-10.25 91.04-10.1L91.04-10.1Q91.29-9.9 91.14-9.58 90.99-9.25 90.52-8.18 90.04-7.1 89.82-6.68 89.59-6.25 89.02-5.18 88.44-4.1 88.02-3.58 87.59-3.05 86.87-2.23 86.14-1.4 85.49-1L85.49-1Q83.74 0.1 82.19 0.1 80.64 0.1 79.79-0.58 78.94-1.25 78.77-2.02 78.59-2.8 78.59-3.4 78.59-4 78.64-4.95L78.64-4.95Q78.79-6.55 79.27-8.05 79.74-9.55 79.79-9.75L79.79-9.75Q80.94-13.9 83.07-18.8 85.19-23.7 86.67-26.18 88.14-28.65 88.99-29.55L88.99-29.55Q90.69-31.35 92.34-31.35L92.34-31.35Q93.49-31.35 93.89-29.7L93.89-29.7Q93.94-29.4 93.94-28.95L93.94-28.95Q93.94-27.25 92.74-24.65L92.74-24.65Q88.44-15.1 82.49-9.65L82.49-9.65ZM82.89-11.25Q85.44-13.85 87.94-17.8 90.44-21.75 91.62-24.53 92.79-27.3 92.79-28.3 92.79-29.3 92.44-29.3L92.44-29.3Q91.94-29.3 90.54-27.33 89.14-25.35 86.77-20.23 84.39-15.1 82.89-11.25L82.89-11.25ZM83.39 15.8L83.39 15.8Q81.19 15.8 79.99 14.88 78.79 13.95 78.79 12.65 78.79 11.35 79.54 9.7L79.54 9.7Q80.84 7.15 84.24 5.6L84.24 5.6Q86.79 4.4 90.99 3.38 95.19 2.35 96.39 2L96.39 2Q98.19-1.15 100.69-9.25L100.69-9.25Q97.79-4.15 95.84-2.1 93.89-0.05 91.89-0.05L91.89-0.05Q89.19-0.05 88.74-2.3L88.74-2.3Q88.54-2.65 88.64-3.35 88.74-4.05 88.77-4.35 88.79-4.65 89.09-5.33 89.39-6 89.49-6.3L89.49-6.3Q90.04-7.45 90.44-8.1L90.44-8.1Q89.64-8.1 89.99-8.9L89.99-8.9 90.89-10.65Q92.59-13.9 93.69-16.15L93.69-16.15Q94.19-17.2 95.64-17.2L95.64-17.2 98.69-17.2Q98.59-17.1 98.19-16.8L98.19-16.8Q97.29-16.2 96.84-15.4L96.84-15.4Q95.04-12.3 92.34-6.55L92.34-6.55Q91.24-4.2 91.24-3.1 91.24-2 91.62-1.55 91.99-1.1 92.64-1.1L92.64-1.1Q93.59-1.1 95.29-3.1L95.29-3.1Q98.84-7.25 103.14-16.15L103.14-16.15Q103.69-17.2 105.09-17.2L105.09-17.2 107.79-17.2Q106.49-16.3 105.74-14.93 104.99-13.55 104.12-11.2 103.24-8.85 101.92-4.95 100.59-1.05 99.89 0.9L99.89 0.9Q104.59-0.5 107.09-4.05L107.09-4.05Q108.19-5.6 110.24-9.55L110.24-9.55Q110.59-10.25 110.87-10.1 111.14-9.95 111.14-9.7 111.14-9.45 110.32-7.78 109.49-6.1 108.64-4.67 107.79-3.25 106.44-1.75 105.09-0.25 103.44 0.63 101.79 1.5 99.04 2.5L99.04 2.5Q95.19 9.5 91.29 12.8L91.29 12.8Q87.64 15.8 83.39 15.8ZM80.49 10.85L80.49 10.85Q79.94 11.95 79.94 12.88 79.94 13.8 80.64 14.3 81.34 14.8 82.39 14.8L82.39 14.8Q85.29 14.8 88.59 11.83 91.89 8.85 94.39 5.45L94.39 5.45 95.49 3.6Q87.24 5.75 85.09 6.7L85.09 6.7Q81.89 8.1 80.49 10.85ZM126.19-1.8L126.19-1.8Q121.54 1.95 115.89 1.95L115.89 1.95Q109.44 1.95 107.94-1.65L107.94-1.65Q107.59-2.5 107.59-3.63 107.59-4.75 108.74-6.05L108.74-6.05Q110.54-8.1 113.74-8.1L113.74-8.1Q115.89-8.1 118.06-7.33 120.24-6.55 125.79-3.6L125.79-3.6Q128.29-6 130.79-10 133.29-14 135.11-17.73 136.94-21.45 139.56-25.85 142.19-30.25 144.79-33.15L144.79-33.15Q139.19-36.5 132.89-36.5L132.89-36.5Q130.29-36.5 127.59-35.95L127.59-35.95Q119.84-34.3 115.79-29.2L115.79-29.2Q113.29-26.1 113.29-23.3L113.29-23.3Q113.29-19.5 116.94-18.35L116.94-18.35Q118.24-18 119.19-18 120.14-18 121.31-18.3 122.49-18.6 123.64-19.7L123.64-19.7Q125.84-21.9 125.99-23.8L125.99-23.8Q126.04-24.25 126.56-24.13 127.09-24 126.99-23.35L126.99-23.35Q126.49-19.7 123.14-17.8L123.14-17.8Q121.09-16.7 119.04-16.7L119.04-16.7 116.44-17.15Q112.64-18.45 111.44-22L111.44-22Q110.94-23.35 110.94-24.7L110.94-24.7Q110.94-27.45 112.99-30.15L112.99-30.15Q117.39-36.05 128.59-37.7L128.59-37.7Q130.79-38 132.94-38L132.94-38Q139.89-38 146.19-34.7L146.19-34.7Q148.14-36.95 149.79-38.13 151.44-39.3 152.44-39.3L152.44-39.3Q152.99-39.3 153.09-39.08 153.19-38.85 153.06-38.73 152.94-38.6 152.74-38.6L152.74-38.6Q151.89-38.6 150.54-36.8 149.19-35 148.34-33.45L148.34-33.45Q153.69-29.9 156.49-24.35L156.49-24.35Q158.74-19.9 158.74-14.65L158.74-14.65Q158.74-8.15 155.64-4.3L155.64-4.3Q153.09-1.15 149.44 0.15L149.44 0.15Q145.09 1.7 140.84 1.7L140.84 1.7Q132.24 1.7 126.19-1.8ZM127.39-2.7L127.39-2.7Q132.44 0.3 139.24 0.3L139.24 0.3Q147.14 0.3 151.84-4.2L151.84-4.2Q155.59-7.85 155.59-14.3L155.59-14.3Q155.59-18.9 153.79-22.95L153.79-22.95Q151.54-28.1 147.14-31.55L147.14-31.55Q145.69-29.3 141.56-22.48 137.44-15.65 134.59-11.4 131.74-7.15 130.09-5.38 128.44-3.6 127.39-2.7ZM124.49-2.6L124.49-2.6Q118.64-5.4 117.09-5.95 115.54-6.5 114.06-6.5 112.59-6.5 111.71-5.4 110.84-4.3 110.84-3.43 110.84-2.55 111.24-1.75L111.24-1.75Q112.29 0.4 115.54 0.4L115.54 0.4Q120.34 0.4 124.49-2.6ZM167.84-19.45Q167.14-18.85 166.29-18.85 165.44-18.85 164.94-19.45 164.44-20.05 164.54-20.9L164.54-20.9Q164.69-21.75 165.39-22.35 166.09-22.95 166.94-22.95 167.79-22.95 168.31-22.35 168.84-21.75 168.69-20.9 168.54-20.05 167.84-19.45ZM162.94-1.1L162.94-1.1Q163.89-1.1 164.94-2.05L164.94-2.05Q166.79-3.9 169.64-9.6L169.64-9.6Q169.99-10.35 170.34-10.05L170.34-10.05Q170.44-9.95 170.44-9.73 170.44-9.5 170.04-8.63 169.64-7.75 169.31-7.05 168.99-6.35 168.06-4.78 167.14-3.2 166.39-2.35L166.39-2.35Q164.34 0 162.51 0 160.69 0 159.89-1.1 159.09-2.2 159.09-3.55 159.09-4.9 159.74-6.5L159.74-6.5 162.94-14.65Q163.04-14.95 163.04-15.45 163.04-15.95 162.44-16.75L162.44-16.75 165.19-16.8Q166.34-16.8 166.54-16.38 166.74-15.95 166.24-15.05L166.24-15.05 162.24-5.7Q161.39-3.85 161.39-2.55L161.39-2.55Q161.39-1.1 162.94-1.1ZM166.23 15.8L166.23 15.8Q161.53 15.8 161.53 11.95L161.53 11.95Q161.53 8.75 165.88 6.2L165.88 6.2Q169.58 4.05 175.33 2.15L175.33 2.15Q177.98 1.3 179.18 0.8L179.18 0.8Q180.48-3 180.48-7.5L180.48-7.5Q180.48-8.4 180.38-8.85L180.38-8.85Q178.98-6 176.53-3L176.53-3Q173.63 0.6 170.78-0.2L170.78-0.2Q168.18-1.3 168.18-4.5L168.18-4.5Q168.18-8.8 172.48-13.95L172.48-13.95Q174.83-16.75 177.98-17.5L177.98-17.5Q178.83-17.75 179.68-17.75L179.68-17.75Q181.93-17.75 184.08-16.25L184.08-16.25Q184.88-15.6 184.88-15.15 184.88-14.7 184.58-14.28 184.28-13.85 183.96-14.18 183.63-14.5 183.53-14.8L183.53-14.8Q182.88-16.65 181.43-16.65L181.43-16.65Q178.78-16.65 175.48-12.95L175.48-12.95Q173.63-10.85 172.28-8.45L172.28-8.45Q170.63-5.45 170.63-3.83 170.63-2.2 171.63-1.65L171.63-1.65Q171.98-1.5 172.33-1.5L172.33-1.5Q173.48-1.5 175.21-3.08 176.93-4.65 178.41-7.08 179.88-9.5 180.28-10.85 180.68-12.2 181.26-12.55 181.83-12.9 182.53-12.95 183.23-13 183.48-13.2L183.48-13.2Q183.88-10.95 183.88-7.93 183.88-4.9 182.83-1.05L182.83-1.05Q185.13-2.7 186.11-4 187.08-5.3 187.66-6.35 188.23-7.4 188.68-8.43 189.13-9.45 189.28-9.75 189.43-10.05 189.78-10.13 190.13-10.2 190.13-9.8L190.13-9.8Q190.13-9.55 189.98-9.2L189.98-9.2Q187.78-4.65 186.31-2.63 184.83-0.6 182.28 0.6L182.28 0.6Q181.08 4 178.81 7.35 176.53 10.7 173.08 13.25 169.63 15.8 166.23 15.8ZM162.58 12.9L162.58 12.9Q162.58 14.8 165.03 14.8L165.03 14.8Q166.48 14.8 168.31 13.95 170.13 13.1 171.33 12.2L171.33 12.2Q173.38 10.55 175.83 7.3L175.83 7.3Q177.68 4.7 178.68 2.25L178.68 2.25 176.93 2.85Q169.13 5.55 165.93 7.65L165.93 7.65Q163.58 9.2 162.83 11.6L162.83 11.6Q162.58 12.35 162.58 12.9ZM191.48-7.7L191.48-7.7Q190.78-6 190.78-3.9L190.78-3.9Q190.78-2.5 191.41-1.68 192.03-0.85 193.18-0.85L193.18-0.85Q197.73-0.85 201.43-9.4L201.43-9.4Q201.78-10.2 202.28-10.1L202.28-10.1Q202.48-10.05 202.48-9.85 202.48-9.65 201.36-7.23 200.23-4.8 199.08-3.3L199.08-3.3Q196.53 0.2 192.78 0.2L192.78 0.2Q190.78 0.2 189.38-1.1 187.98-2.4 187.98-4.65 187.98-6.9 189.06-9.43 190.13-11.95 191.98-14.13 193.83-16.3 196.23-17.3L196.23-17.3Q197.38-17.8 198.43-17.8 199.48-17.8 200.38-17.2L200.38-17.2Q201.23-16.5 201.23-15.65L201.23-15.65Q201.23-12.65 197.63-9.9L197.63-9.9Q196.53-9.05 194.53-8.38 192.53-7.7 191.48-7.7ZM199.88-15.7L199.88-15.7Q199.88-16.7 199.08-16.7L199.08-16.7Q197.68-16.7 194.83-13.25L194.83-13.25Q193.13-11.15 191.83-8.55L191.83-8.55Q192.68-8.55 194.31-9.15 195.93-9.75 197.13-10.75L197.13-10.75Q199.88-13.1 199.88-15.7ZM205.83-0.95L205.83-0.95Q206.48-0.85 206.73-0.85L206.73-0.85Q208.73-0.85 210.68-3.2L210.68-3.2Q211.73-4.5 214.43-9.75L214.43-9.75Q214.53-10 214.78-10L214.78-10Q215.23-10.05 215.23-9.65L215.23-9.65Q215.23-9.55 215-9.08 214.78-8.6 214.58-8.13 214.38-7.65 213.93-6.75 213.48-5.85 213.15-5.3 212.83-4.75 212.33-3.95 211.83-3.15 211.33-2.7L211.33-2.7 210.28-1.6Q209.43-0.75 208.28-0.4L208.28-0.4Q206.43 0.2 204.68-0.3L204.68-0.3Q203.53 0.2 202.63 0.2L202.63 0.2Q199.08 0.2 198.33-2.6L198.33-2.6Q198.18-3.25 198.18-4.17 198.18-5.1 198.8-5.95 199.43-6.8 200.13-6.85L200.13-6.85Q202.68-11.7 204.48-15.6L204.48-15.6Q206.48-19.85 209.13-19.85L209.13-19.85Q209.83-19.85 210.5-19.53 211.18-19.2 211-18.8 210.83-18.4 210.28-18.65 209.73-18.9 209.33-18.9 208.93-18.9 208.63-18.75L208.63-18.75Q206.93-17.95 206.93-15.3L206.93-15.3Q206.93-13.9 207.33-13 207.73-12.1 208.23-11.05L208.23-11.05Q209.38-8.45 209.38-6.8L209.38-6.8Q209.38-5.15 208.33-3.55 207.28-1.95 205.83-0.95ZM204.13-1.3L204.13-1.3Q206.33-3 206.33-6.8L206.33-6.8Q206.33-8.35 205.98-11.05 205.63-13.75 205.63-14.7 205.63-15.65 205.68-16L205.68-16Q201.88-8.4 200.98-6.75L200.98-6.75Q202.03-6.75 202.03-5.25L202.03-5.25Q202.03-2.3 204.13-1.3ZM200.38-2.65L200.38-2.65Q200.38-2.35 200.43-2L200.43-2Q200.83-0.65 202.28-0.65L202.28-0.65Q202.88-0.65 203.28-0.85L203.28-0.85Q201.43-2 201.28-4.6L201.28-4.6Q200.38-3.7 200.38-2.65ZM213.13-4L213.13-4Q213.13-8.15 217.13-17.9L217.13-17.9 214.53-17.9Q214.28-17.9 214.2-18.18 214.13-18.45 214.25-18.73 214.38-19 214.63-19L214.63-19 217.63-19Q219.43-22.95 220.98-25.6 222.53-28.25 223.83-29.18 225.13-30.1 225.7-30.1 226.28-30.1 226.53-30L226.53-30Q227.68-29.45 227.68-27.73 227.68-26 226.53-23.55 225.38-21.1 224.28-19L224.28-19 226.68-19Q226.93-19 227-18.73 227.08-18.45 226.95-18.18 226.83-17.9 226.58-17.9L226.58-17.9 223.68-17.9Q220.93-13.25 217.03-9.65L217.03-9.65 215.88-4.55Q215.73-3.9 215.73-3.28 215.73-2.65 216.08-2 216.43-1.35 217.18-1.35L217.18-1.35Q218.03-1.35 219.08-1.95L219.08-1.95Q221.48-3.75 224.38-9.5L224.38-9.5Q224.58-9.95 224.85-10.05 225.13-10.15 225.18-9.93 225.23-9.7 225.03-9.2L225.03-9.2Q223.38-5.75 222.43-4.3L222.43-4.3Q219.73 0.05 216.68 0.05L216.68 0.05Q215.13 0.05 214.13-1.1 213.13-2.25 213.13-4ZM220.68-19L223.18-19Q226.48-24.9 226.48-27.2L226.48-27.2Q226.48-28.2 226.13-28.2L226.13-28.2Q225.58-28.2 224.45-26.6 223.33-25 220.68-19L220.68-19ZM222.53-17.9L222.53-17.9 220.18-17.9Q219.58-16.5 217.48-11.25L217.48-11.25Q220.18-14.05 222.53-17.9Z" opacity="1" transform="matrix(1,0,0,1,0,0)" fill="#ffffff" class="undefined-text-0" data-fill-palette-color="primary" id="text-0"></path></svg></g></svg></g></svg></g></svg></g><g transform="matrix(1,0,0,1,98.10504168369064,0)"><svg viewBox="0 0 120.20591663261871 105.8866572234674" height="105.8866572234674" width="120.20591663261871"><g><svg xmlns="http://www.w3.org/2000/svg" xmlns:xlink="http://www.w3.org/1999/xlink" version="1.1" x="8" y="0" viewBox="4 3.5 62 63" style="enable-background:new 0 0 70 70;" xml:space="preserve" height="105.8866572234674" width="104.20591663261871" class="icon-icon-0" data-fill-palette-color="accent" id="icon-0"><path d="M10.041 44.479c-0.205 0.681-0.317 1.397-0.317 2.135 0 3.164 1.989 5.888 4.836 7.115v0.725c0 4.614 3.938 8.368 8.778 8.368 0.588 0 1.161-0.073 1.725-0.18C26.161 64.938 28.56 66.5 31.417 66.5c2.43 0 4.431-1.154 5.565-3H41c0.552 0 1-0.448 1-1v-4.533c2.845-0.599 5.601-1.739 8.057-3.336l3.206 3.206c0.188 0.188 0.442 0.293 0.707 0.293s0.52-0.105 0.707-0.293l5.66-5.66c0.391-0.391 0.391-1.023 0-1.414l-3.207-3.206c1.597-2.456 2.738-5.211 3.337-8.057H65c0.552 0 1-0.448 1-1v-8c0-0.552-0.448-1-1-1h-4.533c-0.599-2.845-1.74-5.601-3.337-8.056l3.207-3.207c0.391-0.391 0.391-1.023 0-1.414l-5.66-5.66c-0.375-0.375-1.039-0.375-1.414 0l-3.206 3.207C47.602 12.773 44.846 11.632 42 11.034V6.5c0-0.552-0.448-1-1-1h-4.882c-1.183-1.248-2.841-2-4.733-2-2.49 0-4.672 1.317-5.905 3.287h-1.848c-4.835 0-8.768 3.762-8.768 8.385v0.286c-4.188 0.366-7.486 3.887-7.486 8.168 0 1.802 0.594 3.464 1.586 4.818C6.055 29.92 4 33.073 4 36.32 4 40.009 6.529 43.326 10.041 44.479zM40 7.5v4.36c0 0.487 0.351 0.903 0.831 0.986 3.124 0.538 6.158 1.794 8.774 3.633 0.397 0.279 0.938 0.231 1.282-0.112l3.083-3.083 4.246 4.246-3.083 3.083c-0.344 0.344-0.391 0.884-0.112 1.282 1.839 2.618 3.096 5.652 3.634 8.774C58.737 31.149 59.153 31.5 59.64 31.5H64v6h-4.36c-0.487 0-0.903 0.351-0.985 0.831-0.538 3.123-1.794 6.157-3.634 8.774-0.279 0.397-0.232 0.938 0.112 1.282l3.083 3.083-4.246 4.246-3.083-3.083c-0.343-0.342-0.885-0.391-1.282-0.111-2.618 1.839-5.652 3.095-8.774 3.633C40.351 56.237 40 56.653 40 57.14V61.5h-2.207c0.128-0.55 0.202-1.128 0.202-1.737V49.45C45.802 48.933 52 42.435 52 34.5s-6.198-14.433-14.005-14.95v-9.124c0-1.06-0.21-2.045-0.582-2.926H40zM37.995 47.45V21.55C44.699 22.062 50 27.667 50 34.5S44.699 46.938 37.995 47.45zM10.438 29.994c1.409 1.135 3.197 1.818 5.145 1.818 0.552 0 1-0.448 1-1s-0.448-1-1-1c-3.421 0-6.205-2.775-6.205-6.186 0-3.421 2.784-6.205 6.205-6.205 1.654 0 3.207 0.644 4.374 1.813 0.391 0.391 1.023 0.391 1.414 0.002 0.391-0.391 0.392-1.023 0.002-1.415-1.239-1.241-2.808-2.025-4.509-2.291v-0.358c0-3.521 3.036-6.385 6.768-6.385h0.999c-0.134 0.539-0.213 1.1-0.213 1.68 0 0.315 0.023 0.618 0.058 0.921 0.064 0.548 0.563 0.951 1.108 0.878 0.549-0.063 0.942-0.56 0.878-1.108-0.026-0.227-0.044-0.455-0.044-0.691C26.418 7.729 28.646 5.5 31.385 5.5c2.671 0 4.61 2.072 4.61 4.926v49.337c0 2.789-1.883 4.737-4.578 4.737-2.803 0-4.999-2.063-4.999-4.696 0-0.699 0.153-1.407 0.441-2.047 0.228-0.503 0.004-1.096-0.499-1.322-0.503-0.227-1.095-0.003-1.323 0.499-0.411 0.909-0.619 1.875-0.619 2.87 0 0.314 0.029 0.619 0.071 0.92-0.379 0.06-0.764 0.097-1.151 0.098-3.738 0-6.779-2.857-6.778-6.368v-0.146c0.446 0.072 0.902 0.118 1.369 0.118 1.256 0 2.461-0.264 3.583-0.786 0.501-0.232 0.718-0.827 0.486-1.328-0.233-0.501-0.828-0.719-1.329-0.485-0.856 0.397-1.778 0.599-2.74 0.599-3.421 0-6.205-2.607-6.205-5.812 0-3.02 2.506-5.572 5.705-5.812 0.551-0.041 0.964-0.521 0.922-1.072-0.041-0.551-0.52-0.965-1.072-0.922-2.732 0.205-5.077 1.708-6.401 3.835C8.378 41.887 6 39.474 6 36.32 6 33.601 7.881 30.983 10.438 29.994z" fill="#ffffff" data-fill-palette-color="accent"></path><path d="M19.487 25.947c0.479 0.082 1.034 0.131 1.635 0.131 3.172 0 7.606-1.39 8.693-6.828 0.108-0.542-0.243-1.068-0.784-1.177-0.544-0.107-1.069 0.243-1.177 0.784-1.234 6.167-7.753 5.165-8.033 5.118-0.542-0.091-1.059 0.275-1.152 0.818C18.577 25.337 18.943 25.854 19.487 25.947z" fill="#ffffff" data-fill-palette-color="accent"></path><path d="M26.914 44.341c-2.156-1.24-4.37-0.65-4.465-0.624-0.53 0.146-0.839 0.691-0.696 1.222 0.143 0.531 0.692 0.847 1.222 0.707 0.404-0.106 4.013-0.896 5.318 4.05 0.118 0.448 0.523 0.745 0.967 0.745 0.084 0 0.17-0.011 0.256-0.033 0.534-0.141 0.853-0.688 0.711-1.222C29.62 46.886 28.505 45.256 26.914 44.341z" fill="#ffffff" data-fill-palette-color="accent"></path></svg></g></svg></g><g><rect width="76.37405263862445" height="6.909528236933824" y="97.97712898653357" x="218.31095831630935" fill="#ffffff" data-fill-palette-color="accent"></rect><rect width="76.37405263862445" height="6.909528236933824" y="97.97712898653357" x="21.730989045066195" fill="#ffffff" data-fill-palette-color="accent"></rect><rect width="76.37405263862445" height="6.909528236933824" y="84.15807251266592" x="218.31095831630935" fill="#ffffff" data-fill-palette-color="accent"></rect><rect width="76.37405263862445" height="6.909528236933824" y="84.15807251266592" x="21.730989045066195" fill="#ffffff" data-fill-palette-color="accent"></rect></g></svg></g></svg></g><g><path xmlns="http://www.w3.org/2000/svg" d="M0 247.2v-247.2h395.52v247.2zM389.56 241.24v-235.28h-383.6v235.28z" fill="#ffffff" fill-rule="nonzero" stroke="none" stroke-width="1" stroke-linecap="butt" stroke-linejoin="miter" stroke-miterlimit="10" stroke-dasharray="" stroke-dashoffset="0" font-family="none" font-weight="none" font-size="none" text-anchor="none" style="mix-blend-mode: normal" data-fill-palette-color="tertiary"></path></g></svg></g><defs><mask id="4dc3dc2f-89ee-40f6-8507-eac15bf29a51"><rect width="640" height="400" fill="white"></rect><rect width="348.05760000000004" height="50.40704920637876" fill="black" y="98.39647539681062" x="23.731199999999973" id="transform-me"></rect></mask><mask id="152253c1-33d8-4c12-b865-0e19431ebbc0"><rect width="640" height="400" fill="white"></rect><rect width="348.05760000000004" height="46.57534954027991" fill="black" y="100.31232522986004" x="23.731199999999973" id="transform-me"></rect></mask><mask id="ab7539aa-0c48-449b-a0ee-65bdfe5c724b"><rect width="640" height="400" fill="white"></rect><rect width="348.05760000000004" height="50.40704920637876" fill="black" y="98.39647539681062" x="23.731199999999973" id="transform-me"></rect></mask><mask id="82270be9-b3c9-4474-9be4-480feaa7985f"><rect width="640" height="400" fill="white"></rect><rect width="348.05760000000004" height="46.57534954027991" fill="black" y="100.31232522986004" x="23.731199999999973" id="transform-me"></rect></mask><mask id="443c8bc5-f932-45a6-92da-51d87a68fa8e"><rect width="640" height="400" fill="white"></rect><rect width="348.05760000000004" height="50.40704920637876" fill="black" y="98.39647539681062" x="23.731199999999973" id="transform-me"></rect></mask><mask id="d2cd0046-b9d4-4b25-b147-0c23bb470d4d"><rect width="640" height="400" fill="white"></rect><rect width="348.05760000000004" height="94.21571389029558" fill="black" y="76.4921430548522" x="23.731199999999973" id="transform-me"></rect></mask></defs></svg><rect width="395.52" height="247.2" fill="none" stroke="none" visibility="hidden"></rect></g></svg></g></svg>